<svg width="512" height="512" viewBox="0 0 512 512" fill="none" xmlns="http://www.w3.org/2000/svg">
<g clip-path="url(#clip0_217_2)">
<path d="M255.999 0C114.842 0 0 114.839 0 255.999C0 397.158 114.842 512 255.999 512C397.155 512 511.997 397.158 511.997 255.999C511.997 114.839 397.158 0 255.999 0ZM402.998 212.758L242.167 373.589C238.813 376.961 234.823 379.635 230.429 381.455C226.035 383.275 221.324 384.205 216.568 384.192C206.898 384.192 197.807 380.428 190.969 373.589L109 291.62C105.627 288.267 102.953 284.277 101.133 279.883C99.3127 275.489 98.3819 270.778 98.3947 266.021C98.3947 256.349 102.161 247.258 109 240.42C112.353 237.047 116.342 234.373 120.737 232.552C125.131 230.732 129.842 229.801 134.599 229.815C144.269 229.815 153.362 233.581 160.198 240.422L216.565 296.787L351.794 161.558C355.148 158.185 359.138 155.512 363.532 153.692C367.926 151.872 372.637 150.942 377.393 150.955C387.063 150.955 396.154 154.719 402.992 161.558C417.113 175.678 417.113 198.643 402.998 212.758Z" fill="white"/>
</g>
<defs>
<clipPath id="clip0_217_2">
<rect width="512" height="512" fill="white"/>
</clipPath>
</defs>
</svg>
